<svg xmlns="http://www.w3.org/2000/svg" viewBox="0 0 512 512" role="img" aria-labelledby="title desc">
  <title id="title">Tomato Syndicate app icon</title>
  <desc id="desc">A ripe tomato with vine leaves on a warm paper background.</desc>
  <rect width="512" height="512" rx="96" fill="#f3ebdb"/>
  <circle cx="256" cy="286" r="145" fill="#c5311f"/>
  <path fill="#9c2415" d="M139 260c22 102 92 166 190 157-27 16-67 29-111 21-64-12-111-64-120-130-7-52 11-102 45-136-12 27-17 57-4 88z" opacity=".38"/>
  <path fill="#e76f51" d="M196 194c38-31 103-32 140 0 12 11 9 30-8 36-42 14-86 13-128 0-17-5-21-25-4-36z" opacity=".33"/>
  <path fill="#2f5d3c" d="M255 118c21 40 46 57 90 54-30 21-45 43-44 80-25-25-48-33-84-24 17-31 19-58 3-91 14 8 23 4 35-19z"/>
  <path fill="#234731" d="M255 118c7 47 0 82-38 110 17-31 19-58 3-91 14 8 23 4 35-19z" opacity=".45"/>
  <path fill="none" stroke="#b88322" stroke-width="18" stroke-linecap="round" d="M254 129c10-34 34-56 72-66"/>
  <path fill="#fff8e8" d="M185 251c-11 5-18 16-18 29 0 15-23 15-23 0 0-23 13-43 34-52 14-7 21 17 7 23z" opacity=".58"/>
</svg>
